<mxfile host="Electron" modified="2024-01-21T08:19:54.387Z" agent="Mozilla/5.0 (X11; Linux x86_64) AppleWebKit/537.36 (KHTML, like Gecko) draw.io/22.1.2 Chrome/114.0.5735.289 Electron/25.9.4 Safari/537.36" etag="DmPK5e3efuMrHxl6bTMX" version="22.1.2" type="device">
  <diagram name="Page-1" id="10JpT1eDxJJGJhGyKXPc">
    <mxGraphModel dx="1295" dy="626" grid="0" gridSize="10" guides="1" tooltips="1" connect="1" arrows="1" fold="1" page="1" pageScale="1" pageWidth="850" pageHeight="1100" math="0" shadow="0">
      <root>
        <mxCell id="0" />
        <mxCell id="1" parent="0" />
        <mxCell id="eG-2pyxg9s-MLvzNTUWX-3" value="" style="edgeStyle=orthogonalEdgeStyle;rounded=0;orthogonalLoop=1;jettySize=auto;html=1;exitX=0;exitY=1;exitDx=0;exitDy=0;" edge="1" parent="1" source="eG-2pyxg9s-MLvzNTUWX-1" target="eG-2pyxg9s-MLvzNTUWX-2">
          <mxGeometry relative="1" as="geometry" />
        </mxCell>
        <mxCell id="eG-2pyxg9s-MLvzNTUWX-5" value="" style="edgeStyle=orthogonalEdgeStyle;rounded=0;orthogonalLoop=1;jettySize=auto;html=1;" edge="1" parent="1" source="eG-2pyxg9s-MLvzNTUWX-1" target="eG-2pyxg9s-MLvzNTUWX-4">
          <mxGeometry relative="1" as="geometry" />
        </mxCell>
        <mxCell id="eG-2pyxg9s-MLvzNTUWX-15" style="edgeStyle=orthogonalEdgeStyle;rounded=0;orthogonalLoop=1;jettySize=auto;html=1;exitX=1;exitY=1;exitDx=0;exitDy=0;entryX=0.5;entryY=0;entryDx=0;entryDy=0;" edge="1" parent="1" source="eG-2pyxg9s-MLvzNTUWX-1" target="eG-2pyxg9s-MLvzNTUWX-14">
          <mxGeometry relative="1" as="geometry" />
        </mxCell>
        <mxCell id="eG-2pyxg9s-MLvzNTUWX-1" value="Image Processing" style="ellipse;whiteSpace=wrap;html=1;" vertex="1" parent="1">
          <mxGeometry x="277" y="127" width="97" height="85" as="geometry" />
        </mxCell>
        <mxCell id="eG-2pyxg9s-MLvzNTUWX-7" value="" style="edgeStyle=orthogonalEdgeStyle;rounded=0;orthogonalLoop=1;jettySize=auto;html=1;" edge="1" parent="1" source="eG-2pyxg9s-MLvzNTUWX-2" target="eG-2pyxg9s-MLvzNTUWX-6">
          <mxGeometry relative="1" as="geometry" />
        </mxCell>
        <mxCell id="eG-2pyxg9s-MLvzNTUWX-2" value="C/C++" style="ellipse;whiteSpace=wrap;html=1;" vertex="1" parent="1">
          <mxGeometry x="176" y="272" width="88" height="66" as="geometry" />
        </mxCell>
        <mxCell id="eG-2pyxg9s-MLvzNTUWX-8" style="edgeStyle=orthogonalEdgeStyle;rounded=0;orthogonalLoop=1;jettySize=auto;html=1;exitX=0;exitY=1;exitDx=0;exitDy=0;entryX=1;entryY=0;entryDx=0;entryDy=0;" edge="1" parent="1" source="eG-2pyxg9s-MLvzNTUWX-4" target="eG-2pyxg9s-MLvzNTUWX-6">
          <mxGeometry relative="1" as="geometry">
            <Array as="points">
              <mxPoint x="294" y="340" />
              <mxPoint x="294" y="425" />
            </Array>
          </mxGeometry>
        </mxCell>
        <mxCell id="eG-2pyxg9s-MLvzNTUWX-10" value="" style="edgeStyle=orthogonalEdgeStyle;rounded=0;orthogonalLoop=1;jettySize=auto;html=1;" edge="1" parent="1" source="eG-2pyxg9s-MLvzNTUWX-4" target="eG-2pyxg9s-MLvzNTUWX-9">
          <mxGeometry relative="1" as="geometry" />
        </mxCell>
        <mxCell id="eG-2pyxg9s-MLvzNTUWX-11" value="" style="edgeStyle=orthogonalEdgeStyle;rounded=0;orthogonalLoop=1;jettySize=auto;html=1;" edge="1" parent="1" source="eG-2pyxg9s-MLvzNTUWX-4" target="eG-2pyxg9s-MLvzNTUWX-9">
          <mxGeometry relative="1" as="geometry" />
        </mxCell>
        <mxCell id="eG-2pyxg9s-MLvzNTUWX-13" style="edgeStyle=orthogonalEdgeStyle;rounded=0;orthogonalLoop=1;jettySize=auto;html=1;exitX=1;exitY=1;exitDx=0;exitDy=0;" edge="1" parent="1" source="eG-2pyxg9s-MLvzNTUWX-4" target="eG-2pyxg9s-MLvzNTUWX-12">
          <mxGeometry relative="1" as="geometry" />
        </mxCell>
        <mxCell id="eG-2pyxg9s-MLvzNTUWX-4" value="Python&lt;br&gt;" style="ellipse;whiteSpace=wrap;html=1;" vertex="1" parent="1">
          <mxGeometry x="308" y="272" width="75" height="66" as="geometry" />
        </mxCell>
        <mxCell id="eG-2pyxg9s-MLvzNTUWX-6" value="OpenCV" style="ellipse;whiteSpace=wrap;html=1;" vertex="1" parent="1">
          <mxGeometry x="146" y="442.5" width="86" height="67" as="geometry" />
        </mxCell>
        <mxCell id="eG-2pyxg9s-MLvzNTUWX-9" value="Tensorflow" style="ellipse;whiteSpace=wrap;html=1;" vertex="1" parent="1">
          <mxGeometry x="270" y="445" width="75" height="62" as="geometry" />
        </mxCell>
        <mxCell id="eG-2pyxg9s-MLvzNTUWX-12" value="Keras" style="ellipse;whiteSpace=wrap;html=1;" vertex="1" parent="1">
          <mxGeometry x="356" y="443" width="83" height="70" as="geometry" />
        </mxCell>
        <mxCell id="eG-2pyxg9s-MLvzNTUWX-18" style="edgeStyle=orthogonalEdgeStyle;rounded=0;orthogonalLoop=1;jettySize=auto;html=1;exitX=0.5;exitY=1;exitDx=0;exitDy=0;entryX=0.5;entryY=0;entryDx=0;entryDy=0;" edge="1" parent="1" source="eG-2pyxg9s-MLvzNTUWX-14" target="eG-2pyxg9s-MLvzNTUWX-17">
          <mxGeometry relative="1" as="geometry" />
        </mxCell>
        <mxCell id="eG-2pyxg9s-MLvzNTUWX-19" style="edgeStyle=orthogonalEdgeStyle;rounded=0;orthogonalLoop=1;jettySize=auto;html=1;exitX=1;exitY=1;exitDx=0;exitDy=0;entryX=0.5;entryY=0;entryDx=0;entryDy=0;" edge="1" parent="1" source="eG-2pyxg9s-MLvzNTUWX-14" target="eG-2pyxg9s-MLvzNTUWX-20">
          <mxGeometry relative="1" as="geometry">
            <mxPoint x="565" y="444" as="targetPoint" />
          </mxGeometry>
        </mxCell>
        <mxCell id="eG-2pyxg9s-MLvzNTUWX-14" value="JS" style="ellipse;whiteSpace=wrap;html=1;" vertex="1" parent="1">
          <mxGeometry x="406" y="272" width="75" height="66" as="geometry" />
        </mxCell>
        <mxCell id="eG-2pyxg9s-MLvzNTUWX-17" value="Tensorflow" style="ellipse;whiteSpace=wrap;html=1;" vertex="1" parent="1">
          <mxGeometry x="454" y="441" width="83" height="70" as="geometry" />
        </mxCell>
        <mxCell id="eG-2pyxg9s-MLvzNTUWX-20" value="Pytorch" style="ellipse;whiteSpace=wrap;html=1;" vertex="1" parent="1">
          <mxGeometry x="552" y="441" width="83" height="70" as="geometry" />
        </mxCell>
      </root>
    </mxGraphModel>
  </diagram>
</mxfile>
